<svg version="1.0" xmlns="http://www.w3.org/2000/svg" viewBox="0 0 512.000000 512.000000">
    <g fill="#fff" transform="translate(0.000000,512.000000) scale(0.100000,-0.100000)" stroke="none">
        <path d="M1273 3828 l-1273 -1273 1237 -1238 c681 -682 1256 -1252 1277 -1268
        51 -38 89 -38 127 0 22 22 29 39 29 68 0 37 -25 63 -1150 1188 -632 633 -1150
        1153 -1150 1158 0 4 1055 7 2344 7 l2345 0 28 24 c37 32 39 93 4 130 l-24 26
        -2349 0 c-1291 0 -2348 3 -2348 7 0 5 517 525 1150 1158 1125 1125 1150 1151
        1150 1188 0 51 -44 97 -92 97 -30 0 -127 -94 -1305 -1272z"/>
    </g>
</svg>
