<svg version="1.0" xmlns="http://www.w3.org/2000/svg" viewBox="0 0 512.000000 512.000000">
    <g fill="#fff" transform="translate(0.000000,512.000000) scale(0.100000,-0.100000)" stroke="none">
        <path d="M2479 5071 c-22 -22 -29 -39 -29 -68 0 -37 25 -63 1150 -1188 633
        -633 1150 -1153 1150 -1158 0 -4 -1055 -7 -2344 -7 l-2345 0 -28 -24 c-37 -32
        -39 -93 -4 -130 l24 -26 2349 0 c1291 0 2348 -3 2348 -7 0 -5 -517 -525 -1150
        -1158 -1125 -1125 -1150 -1151 -1150 -1188 0 -51 44 -97 92 -97 30 0 127 94
        1305 1272 l1273 1273 -1237 1238 c-681 682 -1256 1252 -1277 1268 -51 38 -89
        38 -127 0z"/>
    </g>
</svg>
